<svg width="36" height="36" viewBox="0 0 36 36" fill="none" xmlns="http://www.w3.org/2000/svg">
<path d="M25.4006 13.4474C24.639 7.55343 19.6012 3 13.5 3C6.87258 3 1.5 8.37258 1.5 15C1.5 17.8386 2.48561 20.4469 4.13325 22.5016C5.34527 24.0131 6.00049 25.6878 6.00037 27.4592L6 33H19.5L19.5015 28.5H22.5C24.1569 28.5 25.5 27.1569 25.5 25.5V21.1065L28.4389 19.8475C28.9537 19.6271 28.9986 19.1051 28.7763 18.7556L25.4006 13.4474ZM4.5 15C4.5 10.0294 8.52944 6 13.5 6C18.0364 6 21.8498 9.37712 22.4251 13.8318L22.5108 14.4939L24.8246 18.1322L22.5 19.1278V25.5H16.5026L16.501 30H9.0002L9.00037 27.4594C9.00054 25.0008 8.11448 22.671 6.47367 20.6248C5.20227 19.0394 4.5 17.0773 4.5 15ZM31.7302 27.1536L29.2339 25.4894C30.6654 23.3463 31.5 20.7707 31.5 18.0002C31.5 15.2295 30.6654 12.6538 29.2339 10.5108L31.7302 8.84656C33.48 11.4658 34.5 14.6138 34.5 18.0002C34.5 21.3864 33.48 24.5343 31.7302 27.1536Z" fill="white"/>
</svg>
