<svg width="505" height="555" viewBox="0 0 505 555" fill="none" xmlns="http://www.w3.org/2000/svg">
<path d="M173.699 45.8057C209.095 -14.5238 296.318 -14.5237 331.713 45.8057L332.999 47.9968C349.331 75.8287 379.097 93.0157 411.365 93.2417L413.908 93.2594C483.853 93.7492 527.464 169.286 492.914 230.105L491.659 232.314C475.72 260.372 475.72 294.746 491.659 322.804L492.914 325.012C527.464 385.832 483.853 461.368 413.908 461.858L411.365 461.874C379.097 462.102 349.331 479.289 332.999 507.12L331.713 509.311C296.318 569.641 209.095 569.641 173.699 509.311L172.413 507.12C156.083 479.289 126.314 462.102 94.0466 461.874L91.5063 461.858C21.561 461.368 -22.0499 385.832 12.4984 325.012L13.7532 322.804C29.6915 294.746 29.6915 260.372 13.7532 232.314L12.4984 230.105C-22.0499 169.286 21.561 93.7492 91.5063 93.2594L94.0466 93.2417C126.315 93.0157 156.083 75.8287 172.413 47.9968L173.699 45.8057Z" fill="#FFCF59"/>
<path d="M183.547 74.6948C214.532 21.8856 290.882 21.8857 321.865 74.6948L322.99 76.6127C337.286 100.975 363.342 116.02 391.587 116.218L393.813 116.233C455.04 116.662 493.214 182.782 462.971 236.02L461.872 237.954C447.921 262.514 447.921 292.604 461.872 317.164L462.971 319.096C493.214 372.336 455.04 438.455 393.813 438.884L391.587 438.899C363.342 439.097 337.286 454.143 322.99 478.504L321.865 480.422C290.882 533.232 214.532 533.232 183.547 480.422L182.422 478.504C168.128 454.143 142.07 439.097 113.824 438.899L111.601 438.884C50.3743 438.455 12.1997 372.336 42.4414 319.096L43.5398 317.164C57.4913 292.604 57.4913 262.514 43.5398 237.954L42.4414 236.02C12.1997 182.782 50.3743 116.662 111.601 116.233L113.824 116.218C142.07 116.02 168.128 100.975 182.422 76.6127L183.547 74.6948Z" fill="#FFD776"/>
</svg>
