<svg width="54" height="132" viewBox="0 0 54 132" fill="none" xmlns="http://www.w3.org/2000/svg">
<path d="M0.661614 129.88C0.595278 130.148 0.758804 130.419 1.02686 130.485L5.39509 131.566C5.66314 131.633 5.93422 131.469 6.00056 131.201C6.0669 130.933 5.90337 130.662 5.63531 130.596L1.75244 129.635L2.71334 125.752C2.77968 125.484 2.61615 125.213 2.3481 125.146C2.08004 125.08 1.80896 125.244 1.74262 125.512L0.661614 129.88ZM53.1331 67.4912L53.6329 67.5063L53.1331 67.4912ZM1.14697 1C0.879449 1.42241 0.879443 1.42241 0.879439 1.4224C0.879439 1.4224 0.879435 1.4224 0.879435 1.4224C0.879434 1.4224 0.879438 1.4224 0.879446 1.42241C0.879462 1.42242 0.879496 1.42244 0.879546 1.42247C0.879647 1.42254 0.879817 1.42264 0.880055 1.4228C0.880531 1.4231 0.881281 1.42357 0.882303 1.42422C0.884347 1.42552 0.887481 1.42751 0.891694 1.43019C0.900121 1.43555 0.912866 1.44367 0.929848 1.45453C0.963811 1.47624 1.01472 1.50888 1.08193 1.55225C1.21635 1.639 1.41597 1.76865 1.6756 1.93956L2.22543 1.10428C1.96319 0.931654 1.76103 0.800348 1.62415 0.712016C1.55571 0.66785 1.50359 0.634427 1.46843 0.611954C1.45085 0.600717 1.43751 0.592218 1.4285 0.586482C1.42399 0.583614 1.42056 0.581436 1.41822 0.579953C1.41706 0.579212 1.41616 0.578643 1.41554 0.578249C1.41523 0.578052 1.41499 0.577899 1.41481 0.577789C1.41472 0.577734 1.41465 0.577689 1.4146 0.577656C1.41458 0.577639 1.41455 0.577626 1.41454 0.577614C1.41453 0.577609 1.41452 0.577602 1.41451 0.5776C1.4145 0.577594 1.4145 0.577589 1.14697 1ZM3.33248 3.05015C3.81233 3.37688 4.35492 3.75038 4.95336 4.16845L5.52605 3.34867C4.92421 2.92823 4.37832 2.55246 3.89531 2.22357L3.33248 3.05015ZM6.57372 5.31368C7.08328 5.67792 7.62035 6.06563 8.18211 6.47591L8.77191 5.66836C8.20732 5.25601 7.66749 4.86631 7.15524 4.50015L6.57372 5.31368ZM9.7806 7.6556C10.2957 8.03966 10.8268 8.4395 11.3722 8.85458L11.9778 8.05879C11.4297 7.64169 10.896 7.23988 10.3784 6.85392L9.7806 7.6556ZM12.9494 10.0669C13.4565 10.4607 13.9736 10.866 14.4994 11.2825L15.1203 10.4986C14.5919 10.08 14.0723 9.67273 13.5627 9.27709L12.9494 10.0669ZM16.0488 12.5222C16.558 12.9338 17.074 13.355 17.5957 13.7854L18.2321 13.0141C17.7078 12.5815 17.1892 12.1581 16.6774 11.7445L16.0488 12.5222ZM19.1088 15.0468C19.6085 15.4677 20.1124 15.8965 20.6196 16.3329L21.2718 15.5749C20.7619 15.1361 20.2553 14.7051 19.753 14.2819L19.1088 15.0468ZM22.1212 17.6391C22.6108 18.0697 23.1027 18.5069 23.5962 18.9507L24.2649 18.2071C23.7686 17.7608 23.2739 17.3211 22.7816 16.8881L22.1212 17.6391ZM25.0668 20.2885C25.549 20.7322 26.0319 21.1818 26.515 21.6371L27.2009 20.9094C26.7149 20.4513 26.229 19.999 25.744 19.5526L25.0668 20.2885ZM27.9488 23.0053C28.4223 23.4628 28.8953 23.9256 29.3671 24.3934L30.0712 23.6833C29.5963 23.2124 29.1202 22.7466 28.6437 22.2862L27.9488 23.0053ZM30.7624 25.7955C31.2244 26.2662 31.6847 26.7416 32.1427 27.2214L32.8661 26.531C32.4048 26.0477 31.9412 25.5689 31.476 25.0949L30.7624 25.7955ZM33.4975 28.6621C33.9458 29.1459 34.3911 29.634 34.8329 30.126L35.577 29.4579C35.1316 28.9619 34.6828 28.47 34.2311 27.9825L33.4975 28.6621ZM36.1431 31.6093C36.5759 32.1075 37.0046 32.6094 37.4286 33.115L38.1948 32.4724C37.767 31.9623 37.3345 31.4559 36.8981 30.9535L36.1431 31.6093ZM38.686 34.6421C39.1011 35.1559 39.511 35.6731 39.915 36.1936L40.705 35.5804C40.2968 35.0547 39.8829 34.5323 39.4638 34.0136L38.686 34.6421ZM41.1099 37.7658C41.5047 38.2967 41.893 38.8306 42.2741 39.3674L43.0895 38.7886C42.704 38.2456 42.3114 37.7057 41.9124 37.1691L41.1099 37.7658ZM43.3981 40.9904C43.768 41.5383 44.1301 42.089 44.4836 42.6422L45.3262 42.1038C44.968 41.5432 44.6014 40.9855 44.2269 40.4308L43.3981 40.9904ZM45.5245 44.3202C45.8646 44.8855 46.1954 45.4533 46.5161 46.0231L47.3875 45.5327C47.0619 44.9541 46.7263 44.3781 46.3814 43.8047L45.5245 44.3202ZM47.4583 47.7597C47.7632 48.3435 48.057 48.9292 48.3391 49.5167L49.2406 49.0839C48.9535 48.4859 48.6546 47.8902 48.3447 47.2968L47.4583 47.7597ZM49.1616 51.3113C49.4252 51.9158 49.6758 52.5218 49.9128 53.1292L50.8444 52.7657C50.6025 52.1457 50.3468 51.5276 50.0782 50.9116L49.1616 51.3113ZM50.5883 54.9731C50.8019 55.5974 51.0005 56.2228 51.1832 56.8491L52.1432 56.569C51.956 55.9276 51.7528 55.2876 51.5344 54.6493L50.5883 54.9731ZM51.6861 58.7424C51.839 59.3818 51.9748 60.0219 52.0926 60.6623L53.0761 60.4815C52.955 59.8231 52.8156 59.1658 52.6587 58.5098L51.6861 58.7424ZM52.393 62.5981C52.4747 63.2466 52.5373 63.8952 52.5799 64.5437L53.5777 64.4782C53.5338 63.8093 53.4693 63.1408 53.3851 62.473L52.393 62.5981ZM52.6469 66.4991C52.6477 66.8249 52.6432 67.1505 52.6334 67.4761L53.6329 67.5063C53.6431 67.1697 53.6477 66.8332 53.6469 66.4967L52.6469 66.4991ZM52.6334 67.4761C52.6235 67.8033 52.6082 68.1305 52.5876 68.4576L53.5856 68.5205C53.6069 68.1826 53.6227 67.8445 53.6329 67.5063L52.6334 67.4761ZM52.4011 70.4192C52.319 71.0676 52.2168 71.7155 52.0954 72.3626L53.0782 72.547C53.2032 71.8809 53.3085 71.2135 53.3932 70.5449L52.4011 70.4192ZM51.6776 74.2893C51.5209 74.9267 51.3464 75.563 51.1548 76.1981L52.1122 76.4869C52.3086 75.8358 52.4877 75.1827 52.6487 74.528L51.6776 74.2893ZM50.54 78.0705C50.3208 78.6885 50.0861 79.3051 49.8367 79.9199L50.7634 80.2958C51.0181 79.6677 51.2581 79.0373 51.4825 78.4049L50.54 78.0705ZM49.0531 81.7418C48.782 82.3383 48.4977 82.9329 48.2009 83.5255L49.095 83.9733C49.3973 83.3699 49.687 82.7639 49.9635 82.1555L49.0531 81.7418ZM47.2801 85.2849C46.965 85.8623 46.6385 86.4375 46.3015 87.0101L47.1633 87.5174C47.5057 86.9357 47.8374 86.3511 48.1579 85.7639L47.2801 85.2849ZM45.2691 88.7046C44.9168 89.2639 44.5549 89.8206 44.184 90.3744L45.0149 90.9309C45.3908 90.3695 45.7579 89.805 46.1153 89.2375L45.2691 88.7046ZM43.059 92.0076C42.6769 92.5473 42.2868 93.0841 41.8893 93.6177L42.6912 94.2151C43.0934 93.6753 43.4883 93.132 43.8752 92.5854L43.059 92.0076ZM40.6827 95.199C40.2753 95.7208 39.8613 96.2392 39.4413 96.7541L40.2162 97.3862C40.6405 96.866 41.059 96.342 41.4709 95.8145L40.6827 95.199ZM38.1668 98.2849C37.7375 98.7904 37.3029 99.2921 36.8637 99.7899L37.6136 100.452C38.0568 99.9491 38.4955 99.4427 38.929 98.9323L38.1668 98.2849ZM35.5324 101.272C35.0839 101.763 34.6315 102.249 34.1757 102.731L34.9023 103.418C35.3619 102.932 35.8181 102.442 36.2704 101.947L35.5324 101.272ZM32.7943 104.169C32.3297 104.645 31.8624 105.116 31.393 105.583L32.0981 106.292C32.5709 105.822 33.0418 105.347 33.5099 104.867L32.7943 104.169ZM29.9665 106.981C29.4871 107.444 29.0063 107.902 28.5246 108.354L29.2095 109.083C29.6944 108.627 30.1785 108.166 30.6612 107.7L29.9665 106.981ZM27.0612 109.712C26.5673 110.164 26.0733 110.61 25.5799 111.05L26.2457 111.796C26.7422 111.353 27.2393 110.904 27.7364 110.449L27.0612 109.712ZM24.0897 112.364C23.5817 112.806 23.0751 113.242 22.5706 113.671L23.2185 114.433C23.7258 114.002 24.2354 113.563 24.7465 113.118L24.0897 112.364ZM21.0444 114.955C20.5288 115.383 20.0165 115.804 19.5081 116.217L20.1389 116.993C20.65 116.578 21.1652 116.155 21.6836 115.724L21.0444 114.955ZM17.9451 117.474C17.4167 117.894 16.8938 118.306 16.3776 118.707L16.9918 119.497C17.5107 119.093 18.0363 118.679 18.5675 118.257L17.9451 117.474ZM14.8078 119.916C14.2637 120.331 13.7287 120.734 13.204 121.126L13.802 121.927C14.3294 121.534 14.8671 121.129 15.414 120.712L14.8078 119.916ZM11.5931 122.315C11.0388 122.72 10.499 123.11 9.97526 123.485L10.557 124.298C11.0834 123.922 11.626 123.53 12.183 123.123L11.5931 122.315ZM8.348 124.636C7.77504 125.037 7.22708 125.416 6.70705 125.772L7.27186 126.597C7.79469 126.24 8.34553 125.859 8.92145 125.456L8.348 124.636ZM5.04921 126.894C4.4348 127.304 3.87787 127.671 3.3857 127.991L3.93096 128.829C4.42645 128.507 4.98682 128.138 5.60479 127.725L5.04921 126.894ZM1.70032 129.069C1.43571 129.235 1.23221 129.361 1.09515 129.446C1.02663 129.488 0.974717 129.52 0.940086 129.541C0.922771 129.551 0.909776 129.559 0.901184 129.564C0.896888 129.567 0.893694 129.569 0.89161 129.57C0.890568 129.571 0.889805 129.571 0.88932 129.571C0.889078 129.572 0.888905 129.572 0.888802 129.572C0.888751 129.572 0.888717 129.572 0.888701 129.572C0.888693 129.572 0.888689 129.572 0.88869 129.572C0.88869 129.572 0.888694 129.572 0.888694 129.572C0.888699 129.572 0.888704 129.572 1.14697 130C1.40524 130.428 1.40525 130.428 1.40526 130.428C1.40526 130.428 1.40527 130.428 1.40528 130.428C1.4053 130.428 1.40532 130.428 1.40535 130.428C1.4054 130.428 1.40547 130.428 1.40556 130.428C1.40574 130.428 1.40599 130.428 1.40631 130.427C1.40694 130.427 1.40786 130.427 1.40905 130.426C1.41143 130.424 1.41493 130.422 1.41953 130.419C1.42873 130.414 1.44234 130.406 1.46027 130.395C1.49614 130.373 1.5493 130.34 1.6191 130.297C1.75869 130.212 1.96482 130.084 2.23214 129.916L1.70032 129.069Z" fill="black"/>
</svg>
