<svg width="54" height="132" viewBox="0 0 54 132" fill="none" xmlns="http://www.w3.org/2000/svg">
<path d="M53.6324 129.38C53.6987 129.648 53.5352 129.919 53.2671 129.985L48.8989 131.066C48.6309 131.133 48.3598 130.969 48.2934 130.701C48.2271 130.433 48.3906 130.162 48.6587 130.096L52.5416 129.135L51.5807 125.252C51.5143 124.984 51.6779 124.713 51.9459 124.646C52.214 124.58 52.485 124.744 52.5514 125.012L53.6324 129.38ZM1.16087 66.9912L0.661098 67.0063L1.16087 66.9912ZM53.147 0.5C53.4146 0.922411 53.4146 0.922407 53.4146 0.922404C53.4146 0.922404 53.4146 0.922402 53.4146 0.922402C53.4146 0.922402 53.4146 0.922404 53.4146 0.922409C53.4145 0.92242 53.4145 0.922441 53.4145 0.922473C53.4144 0.922537 53.4142 0.922644 53.414 0.922795C53.4135 0.923097 53.4127 0.923573 53.4117 0.924221C53.4097 0.925519 53.4065 0.92751 53.4023 0.930191C53.3939 0.935552 53.3811 0.943673 53.3642 0.954528C53.3302 0.976238 53.2793 1.00888 53.2121 1.05225C53.0777 1.139 52.878 1.26865 52.6184 1.43956L52.0686 0.604279C52.3308 0.431654 52.533 0.300348 52.6699 0.212016C52.7383 0.16785 52.7904 0.134427 52.8256 0.111954C52.8432 0.100717 52.8565 0.0922177 52.8655 0.0864816C52.87 0.0836136 52.8734 0.0814363 52.8758 0.0799532C52.877 0.0792116 52.8778 0.0786435 52.8785 0.0782493C52.8788 0.0780522 52.879 0.0778986 52.8792 0.0777885C52.8793 0.0777335 52.8794 0.0776893 52.8794 0.0776561C52.8794 0.0776395 52.8795 0.0776255 52.8795 0.0776143C52.8795 0.0776088 52.8795 0.0776024 52.8795 0.0775996C52.8795 0.0775939 52.8795 0.0775889 53.147 0.5ZM50.9615 2.55015C50.4817 2.87688 49.9391 3.25038 49.3406 3.66845L48.768 2.84867C49.3698 2.42823 49.9157 2.05246 50.3987 1.72357L50.9615 2.55015ZM47.7203 4.81368C47.2107 5.17792 46.6737 5.56563 46.1119 5.97591L45.5221 5.16836C46.0867 4.75601 46.6265 4.36631 47.1388 4.00015L47.7203 4.81368ZM44.5134 7.1556C43.9983 7.53966 43.4672 7.9395 42.9218 8.35458L42.3162 7.55879C42.8643 7.14169 43.398 6.73988 43.9156 6.35392L44.5134 7.1556ZM41.3446 9.56694C40.8375 9.96066 40.3204 10.366 39.7946 10.7825L39.1737 9.99861C39.7021 9.58003 40.2217 9.17273 40.7313 8.77709L41.3446 9.56694ZM38.2452 12.0222C37.736 12.4338 37.22 12.855 36.6983 13.2854L36.0619 12.5141C36.5862 12.0815 37.1048 11.6581 37.6166 11.2445L38.2452 12.0222ZM35.1852 14.5468C34.6855 14.9677 34.1817 15.3965 33.6744 15.8329L33.0222 15.0749C33.5322 14.6361 34.0387 14.2051 34.541 13.7819L35.1852 14.5468ZM32.1728 17.1391C31.6832 17.5697 31.1913 18.0069 30.6978 18.4507L30.0292 17.7071C30.5254 17.2608 31.0201 16.8211 31.5124 16.3881L32.1728 17.1391ZM29.2272 19.7885C28.745 20.2322 28.2621 20.6818 27.779 21.1371L27.0931 20.4094C27.5791 19.9513 28.065 19.499 28.55 19.0526L29.2272 19.7885ZM26.3452 22.5053C25.8717 22.9628 25.3987 23.4256 24.9269 23.8934L24.2228 23.1833C24.6978 22.7124 25.1738 22.2466 25.6503 21.7862L26.3452 22.5053ZM23.5317 25.2955C23.0696 25.7662 22.6093 26.2416 22.1513 26.7214L21.4279 26.031C21.8892 25.5477 22.3528 25.0689 22.8181 24.5949L23.5317 25.2955ZM20.7965 28.1621C20.3482 28.6459 19.9029 29.134 19.4611 29.626L18.717 28.9579C19.1624 28.4619 19.6112 27.97 20.0629 27.4825L20.7965 28.1621ZM18.1509 31.1093C17.7181 31.6075 17.2894 32.1094 16.8654 32.615L16.0992 31.9724C16.527 31.4623 16.9595 30.9559 17.3959 30.4535L18.1509 31.1093ZM15.608 34.1421C15.1929 34.6559 14.783 35.1731 14.379 35.6936L13.589 35.0804C13.9972 34.5547 14.4111 34.0323 14.8302 33.5136L15.608 34.1421ZM13.1841 37.2658C12.7893 37.7967 12.401 38.3306 12.0199 38.8674L11.2045 38.2886C11.59 37.7456 11.9826 37.2057 12.3816 36.6691L13.1841 37.2658ZM10.8959 40.4904C10.526 41.0383 10.164 41.589 9.81044 42.1422L8.9678 41.6038C9.32597 41.0432 9.69263 40.4855 10.0671 39.9308L10.8959 40.4904ZM8.76949 43.8202C8.42937 44.3855 8.09865 44.9533 7.77794 45.5231L6.90647 45.0327C7.23206 44.4541 7.56766 43.8781 7.9126 43.3047L8.76949 43.8202ZM6.83567 47.2597C6.53081 47.8435 6.23698 48.4292 5.95486 49.0167L5.05341 48.5839C5.34054 47.9859 5.63939 47.3902 5.94927 46.7968L6.83567 47.2597ZM5.13245 50.8113C4.86884 51.4158 4.61819 52.0218 4.38119 52.6292L3.4496 52.2657C3.6915 51.6457 3.94717 51.0276 4.21584 50.4116L5.13245 50.8113ZM3.70575 54.4731C3.49212 55.0974 3.29356 55.7228 3.11081 56.3491L2.15084 56.069C2.338 55.4276 2.54119 54.7876 2.75961 54.1493L3.70575 54.4731ZM2.60791 58.2424C2.45498 58.8818 2.31923 59.5219 2.20144 60.1623L1.21793 59.9815C1.339 59.3231 1.47843 58.6658 1.63534 58.0098L2.60791 58.2424ZM1.90103 62.0981C1.81927 62.7466 1.75669 63.3952 1.71411 64.0437L0.716259 63.9782C0.760181 63.3093 0.824692 62.6408 0.908886 61.973L1.90103 62.0981ZM1.64713 65.9991C1.64634 66.3249 1.65081 66.6505 1.66064 66.9761L0.661098 67.0063C0.650936 66.6697 0.646317 66.3332 0.647129 65.9967L1.64713 65.9991ZM1.66064 66.9761C1.67052 67.3033 1.68583 67.6305 1.70644 67.9576L0.708416 68.0205C0.687126 67.6826 0.671314 67.3445 0.661098 67.0063L1.66064 66.9761ZM1.89288 69.9192C1.97504 70.5676 2.07724 71.2155 2.19862 71.8626L1.21576 72.047C1.09084 71.3809 0.985531 70.7135 0.900818 70.0449L1.89288 69.9192ZM2.61643 73.7893C2.7731 74.4267 2.94764 75.063 3.13923 75.6981L2.18184 75.9869C1.98542 75.3358 1.80627 74.6827 1.64534 74.028L2.61643 73.7893ZM3.75399 77.5705C3.97321 78.1885 4.20792 78.8051 4.45731 79.4199L3.53065 79.7958C3.27587 79.1677 3.03588 78.5373 2.81153 77.9049L3.75399 77.5705ZM5.24095 81.2418C5.512 81.8383 5.7963 82.4329 6.0931 83.0255L5.199 83.4733C4.89674 82.8699 4.60698 82.2639 4.33053 81.6555L5.24095 81.2418ZM7.01394 84.7849C7.32903 85.3623 7.65546 85.9375 7.99252 86.5101L7.13071 87.0174C6.78835 86.4357 6.45657 85.8511 6.13612 85.2639L7.01394 84.7849ZM9.02487 88.2046C9.37716 88.7639 9.73909 89.3206 10.11 89.8744L9.27908 90.4309C8.90316 89.8695 8.53614 89.305 8.17871 88.7375L9.02487 88.2046ZM11.235 91.5076C11.6171 92.0473 12.0072 92.5841 12.4048 93.1177L11.6028 93.7151C11.2006 93.1753 10.8057 92.632 10.4188 92.0854L11.235 91.5076ZM13.6113 94.699C14.0187 95.2208 14.4328 95.7392 14.8527 96.2541L14.0778 96.8862C13.6535 96.366 13.2351 95.842 12.8231 95.3145L13.6113 94.699ZM16.1272 97.7849C16.5565 98.2904 16.9911 98.7921 17.4303 99.2899L16.6804 99.9515C16.2372 99.4491 15.7985 98.9427 15.365 98.4323L16.1272 97.7849ZM18.7616 100.772C19.2101 101.263 19.6625 101.749 20.1183 102.231L19.3917 102.918C18.9322 102.432 18.4759 101.942 18.0236 101.447L18.7616 100.772ZM21.4997 103.669C21.9643 104.145 22.4316 104.616 22.901 105.083L22.1959 105.792C21.7231 105.322 21.2522 104.847 20.7841 104.367L21.4997 103.669ZM24.3275 106.481C24.8069 106.944 25.2877 107.402 25.7694 107.854L25.0846 108.583C24.5996 108.127 24.1155 107.666 23.6328 107.2L24.3275 106.481ZM27.2328 109.212C27.7267 109.664 28.2207 110.11 28.7141 110.55L28.0483 111.296C27.5518 110.853 27.0547 110.404 26.5576 109.949L27.2328 109.212ZM30.2043 111.864C30.7123 112.306 31.219 112.742 31.7234 113.171L31.0755 113.933C30.5682 113.502 30.0586 113.063 29.5476 112.618L30.2043 111.864ZM33.2496 114.455C33.7652 114.883 34.2776 115.304 34.7859 115.717L34.1551 116.493C33.644 116.078 33.1288 115.655 32.6104 115.224L33.2496 114.455ZM36.3489 116.974C36.8773 117.394 37.4002 117.806 37.9164 118.207L37.3022 118.997C36.7833 118.593 36.2577 118.179 35.7265 117.757L36.3489 116.974ZM39.4862 119.416C40.0303 119.831 40.5653 120.234 41.09 120.626L40.492 121.427C39.9647 121.034 39.4269 120.629 38.88 120.212L39.4862 119.416ZM42.701 121.815C43.2552 122.22 43.795 122.61 44.3187 122.985L43.737 123.798C43.2106 123.422 42.668 123.03 42.111 122.623L42.701 121.815ZM45.946 124.136C46.519 124.537 47.0669 124.916 47.587 125.272L47.0221 126.097C46.4993 125.74 45.9485 125.359 45.3726 124.956L45.946 124.136ZM49.2448 126.394C49.8592 126.804 50.4161 127.171 50.9083 127.491L50.363 128.329C49.8676 128.007 49.3072 127.638 48.6892 127.225L49.2448 126.394ZM52.5937 128.569C52.8583 128.735 53.0618 128.861 53.1989 128.946C53.2674 128.988 53.3193 129.02 53.3539 129.041C53.3712 129.051 53.3842 129.059 53.3928 129.064C53.3971 129.067 53.4003 129.069 53.4024 129.07C53.4034 129.071 53.4042 129.071 53.4047 129.071C53.4049 129.072 53.4051 129.072 53.4052 129.072C53.4053 129.072 53.4053 129.072 53.4053 129.072C53.4053 129.072 53.4053 129.072 53.4053 129.072C53.4053 129.072 53.4053 129.072 53.4053 129.072C53.4053 129.072 53.4053 129.072 53.147 129.5C52.8888 129.928 52.8888 129.928 52.8887 129.928C52.8887 129.928 52.8887 129.928 52.8887 129.928C52.8887 129.928 52.8887 129.928 52.8887 129.928C52.8886 129.928 52.8885 129.928 52.8884 129.928C52.8883 129.928 52.888 129.928 52.8877 129.927C52.8871 129.927 52.8862 129.927 52.885 129.926C52.8826 129.924 52.8791 129.922 52.8745 129.919C52.8653 129.914 52.8517 129.906 52.8337 129.895C52.7979 129.873 52.7447 129.84 52.6749 129.797C52.5353 129.712 52.3292 129.584 52.0619 129.416L52.5937 128.569Z" fill="black"/>
</svg>
