<svg width="54" height="132" viewBox="0 0 54 132" fill="none" xmlns="http://www.w3.org/2000/svg">
<path d="M0.661614 129.816C0.595278 130.084 0.758804 130.355 1.02686 130.421L5.39509 131.502C5.66314 131.568 5.93422 131.405 6.00056 131.137C6.0669 130.869 5.90337 130.598 5.63531 130.531L1.75244 129.571L2.71334 125.688C2.77968 125.42 2.61615 125.149 2.3481 125.082C2.08004 125.016 1.80896 125.179 1.74262 125.447L0.661614 129.816ZM53.1331 67.427L53.6329 67.4421L53.1331 67.427ZM1.14697 0.935791C0.879449 1.3582 0.879443 1.3582 0.879439 1.3582C0.879439 1.3582 0.879435 1.35819 0.879435 1.35819C0.879434 1.35819 0.879438 1.3582 0.879446 1.3582C0.879462 1.35821 0.879496 1.35823 0.879546 1.35826C0.879647 1.35833 0.879817 1.35844 0.880055 1.35859C0.880531 1.35889 0.881281 1.35936 0.882303 1.36001C0.884347 1.36131 0.887481 1.3633 0.891694 1.36598C0.900121 1.37134 0.912866 1.37946 0.929848 1.39032C0.963811 1.41203 1.01472 1.44467 1.08193 1.48804C1.21635 1.57479 1.41597 1.70444 1.6756 1.87535L2.22543 1.04007C1.96319 0.867445 1.76103 0.736139 1.62415 0.647807C1.55571 0.603641 1.50359 0.570218 1.46843 0.547745C1.45085 0.536508 1.43751 0.528009 1.4285 0.522273C1.42399 0.519405 1.42056 0.517227 1.41822 0.515744C1.41706 0.515003 1.41616 0.514434 1.41554 0.51404C1.41523 0.513843 1.41499 0.51369 1.41481 0.51358C1.41472 0.513525 1.41465 0.51348 1.4146 0.513447C1.41458 0.51343 1.41455 0.513417 1.41454 0.513405C1.41453 0.5134 1.41452 0.513393 1.41451 0.513391C1.4145 0.513385 1.4145 0.51338 1.14697 0.935791ZM3.33248 2.98594C3.81233 3.31267 4.35492 3.68617 4.95336 4.10424L5.52605 3.28446C4.92421 2.86402 4.37832 2.48826 3.89531 2.15936L3.33248 2.98594ZM6.57372 5.24947C7.08328 5.61371 7.62035 6.00142 8.18211 6.41171L8.77191 5.60415C8.20732 5.1918 7.66749 4.8021 7.15524 4.43594L6.57372 5.24947ZM9.7806 7.59139C10.2957 7.97545 10.8268 8.37529 11.3722 8.79037L11.9778 7.99458C11.4297 7.57748 10.896 7.17567 10.3784 6.78971L9.7806 7.59139ZM12.9494 10.0027C13.4565 10.3964 13.9736 10.8018 14.4994 11.2183L15.1203 10.4344C14.5919 10.0158 14.0723 9.60852 13.5627 9.21288L12.9494 10.0027ZM16.0488 12.458C16.558 12.8696 17.074 13.2908 17.5957 13.7212L18.2321 12.9499C17.7078 12.5172 17.1892 12.0939 16.6774 11.6803L16.0488 12.458ZM19.1088 14.9826C19.6085 15.4035 20.1124 15.8323 20.6196 16.2687L21.2718 15.5107C20.7619 15.0719 20.2553 14.6408 19.753 14.2177L19.1088 14.9826ZM22.1212 17.5749C22.6108 18.0054 23.1027 18.4427 23.5962 18.8865L24.2649 18.1429C23.7686 17.6966 23.2739 17.2569 22.7816 16.8239L22.1212 17.5749ZM25.0668 20.2242C25.549 20.668 26.0319 21.1176 26.515 21.5729L27.2009 20.8452C26.7149 20.3871 26.229 19.9348 25.744 19.4884L25.0668 20.2242ZM27.9488 22.9411C28.4223 23.3986 28.8953 23.8614 29.3671 24.3292L30.0712 23.6191C29.5963 23.1482 29.1202 22.6824 28.6437 22.222L27.9488 22.9411ZM30.7624 25.7313C31.2244 26.202 31.6847 26.6774 32.1427 27.1572L32.8661 26.4668C32.4048 25.9835 31.9412 25.5047 31.476 25.0307L30.7624 25.7313ZM33.4975 28.5979C33.9458 29.0817 34.3911 29.5698 34.8329 30.0618L35.577 29.3937C35.1316 28.8977 34.6828 28.4058 34.2311 27.9183L33.4975 28.5979ZM36.1431 31.5451C36.5759 32.0433 37.0046 32.5452 37.4286 33.0508L38.1948 32.4082C37.767 31.8981 37.3345 31.3917 36.8981 30.8893L36.1431 31.5451ZM38.686 34.5778C39.1011 35.0917 39.511 35.6089 39.915 36.1294L40.705 35.5162C40.2968 34.9904 39.8829 34.4681 39.4638 33.9494L38.686 34.5778ZM41.1099 37.7016C41.5047 38.2325 41.893 38.7664 42.2741 39.3032L43.0895 38.7243C42.704 38.1814 42.3114 37.6415 41.9124 37.1049L41.1099 37.7016ZM43.3981 40.9262C43.768 41.4741 44.1301 42.0248 44.4836 42.578L45.3262 42.0395C44.968 41.479 44.6014 40.9213 44.2269 40.3666L43.3981 40.9262ZM45.5245 44.256C45.8646 44.8213 46.1954 45.389 46.5161 45.9589L47.3875 45.4685C47.0619 44.8899 46.7263 44.3138 46.3814 43.7405L45.5245 44.256ZM47.4583 47.6955C47.7632 48.2793 48.057 48.865 48.3391 49.4525L49.2406 49.0197C48.9535 48.4217 48.6546 47.826 48.3447 47.2326L47.4583 47.6955ZM49.1616 51.2471C49.4252 51.8516 49.6758 52.4576 49.9128 53.065L50.8444 52.7015C50.6025 52.0815 50.3468 51.4634 50.0782 50.8474L49.1616 51.2471ZM50.5883 54.9089C50.8019 55.5332 51.0005 56.1586 51.1832 56.7849L52.1432 56.5048C51.956 55.8634 51.7528 55.2234 51.5344 54.5851L50.5883 54.9089ZM51.6861 58.6782C51.839 59.3176 51.9748 59.9577 52.0926 60.5981L53.0761 60.4172C52.955 59.7589 52.8156 59.1016 52.6587 58.4456L51.6861 58.6782ZM52.393 62.5339C52.4747 63.1824 52.5373 63.831 52.5799 64.4795L53.5777 64.414C53.5338 63.7451 53.4693 63.0766 53.3851 62.4088L52.393 62.5339ZM52.6469 66.4349C52.6477 66.7606 52.6432 67.0863 52.6334 67.4119L53.6329 67.4421C53.6431 67.1055 53.6477 66.769 53.6469 66.4325L52.6469 66.4349ZM52.6334 67.4119C52.6235 67.7391 52.6082 68.0663 52.5876 68.3934L53.5856 68.4563C53.6069 68.1184 53.6227 67.7803 53.6329 67.4421L52.6334 67.4119ZM52.4011 70.355C52.319 71.0034 52.2168 71.6513 52.0954 72.2984L53.0782 72.4828C53.2032 71.8167 53.3085 71.1493 53.3932 70.4807L52.4011 70.355ZM51.6776 74.2251C51.5209 74.8624 51.3464 75.4988 51.1548 76.1339L52.1122 76.4227C52.3086 75.7716 52.4877 75.1185 52.6487 74.4638L51.6776 74.2251ZM50.54 78.0063C50.3208 78.6243 50.0861 79.2409 49.8367 79.8557L50.7634 80.2316C51.0181 79.6035 51.2581 78.9731 51.4825 78.3406L50.54 78.0063ZM49.0531 81.6776C48.782 82.2741 48.4977 82.8687 48.2009 83.4613L49.095 83.9091C49.3973 83.3057 49.687 82.6997 49.9635 82.0913L49.0531 81.6776ZM47.2801 85.2207C46.965 85.7981 46.6385 86.3733 46.3015 86.9459L47.1633 87.4532C47.5057 86.8715 47.8374 86.2869 48.1579 85.6997L47.2801 85.2207ZM45.2691 88.6403C44.9168 89.1997 44.5549 89.7564 44.184 90.3102L45.0149 90.8666C45.3908 90.3053 45.7579 89.7408 46.1153 89.1733L45.2691 88.6403ZM43.059 91.9434C42.6769 92.4831 42.2868 93.0199 41.8893 93.5535L42.6912 94.1509C43.0934 93.6111 43.4883 93.0677 43.8752 92.5212L43.059 91.9434ZM40.6827 95.1348C40.2753 95.6566 39.8613 96.175 39.4413 96.6899L40.2162 97.322C40.6405 96.8018 41.059 96.2778 41.4709 95.7503L40.6827 95.1348ZM38.1668 98.2207C37.7375 98.7262 37.3029 99.2279 36.8637 99.7257L37.6136 100.387C38.0568 99.8849 38.4955 99.3784 38.929 98.8681L38.1668 98.2207ZM35.5324 101.208C35.0839 101.698 34.6315 102.185 34.1757 102.667L34.9023 103.354C35.3619 102.868 35.8181 102.377 36.2704 101.883L35.5324 101.208ZM32.7943 104.105C32.3297 104.581 31.8624 105.052 31.393 105.519L32.0981 106.228C32.5709 105.758 33.0418 105.283 33.5099 104.803L32.7943 104.105ZM29.9665 106.916C29.4871 107.379 29.0063 107.837 28.5246 108.29L29.2095 109.019C29.6944 108.563 30.1785 108.102 30.6612 107.636L29.9665 106.916ZM27.0612 109.647C26.5673 110.099 26.0733 110.546 25.5799 110.986L26.2457 111.732C26.7422 111.289 27.2393 110.84 27.7364 110.385L27.0612 109.647ZM24.0897 112.3C23.5817 112.742 23.0751 113.178 22.5706 113.607L23.2185 114.369C23.7258 113.937 24.2354 113.499 24.7465 113.054L24.0897 112.3ZM21.0444 114.89C20.5288 115.319 20.0165 115.74 19.5081 116.153L20.1389 116.929C20.65 116.514 21.1652 116.09 21.6836 115.659L21.0444 114.89ZM17.9451 117.41C17.4167 117.83 16.8938 118.241 16.3776 118.643L16.9918 119.432C17.5107 119.028 18.0363 118.615 18.5675 118.193L17.9451 117.41ZM14.8078 119.852C14.2637 120.267 13.7287 120.67 13.204 121.062L13.802 121.863C14.3294 121.47 14.8671 121.064 15.414 120.648L14.8078 119.852ZM11.5931 122.251C11.0388 122.656 10.499 123.046 9.97526 123.421L10.557 124.234C11.0834 123.857 11.626 123.466 12.183 123.059L11.5931 122.251ZM8.348 124.572C7.77504 124.973 7.22708 125.352 6.70705 125.708L7.27186 126.533C7.79469 126.175 8.34553 125.794 8.92145 125.391L8.348 124.572ZM5.04921 126.829C4.4348 127.24 3.87787 127.606 3.3857 127.926L3.93096 128.765C4.42645 128.442 4.98682 128.074 5.60479 127.661L5.04921 126.829ZM1.70032 129.005C1.43571 129.171 1.23221 129.297 1.09515 129.382C1.02663 129.424 0.974717 129.455 0.940086 129.476C0.922771 129.487 0.909776 129.495 0.901184 129.5C0.896888 129.503 0.893694 129.505 0.89161 129.506C0.890568 129.507 0.889805 129.507 0.88932 129.507C0.889078 129.507 0.888905 129.508 0.888802 129.508C0.888751 129.508 0.888717 129.508 0.888701 129.508C0.888693 129.508 0.888689 129.508 0.88869 129.508C0.88869 129.508 0.888694 129.508 0.888694 129.508C0.888699 129.508 0.888704 129.508 1.14697 129.936C1.40524 130.364 1.40525 130.364 1.40526 130.364C1.40526 130.364 1.40527 130.364 1.40528 130.364C1.4053 130.364 1.40532 130.364 1.40535 130.364C1.4054 130.364 1.40547 130.364 1.40556 130.364C1.40574 130.364 1.40599 130.363 1.40631 130.363C1.40694 130.363 1.40786 130.362 1.40905 130.362C1.41143 130.36 1.41493 130.358 1.41953 130.355C1.42873 130.35 1.44234 130.341 1.46027 130.331C1.49614 130.309 1.5493 130.276 1.6191 130.233C1.75869 130.147 1.96482 130.02 2.23214 129.852L1.70032 129.005Z" fill="black"/>
</svg>
