<svg width="108" height="109" viewBox="0 0 108 109" fill="none" xmlns="http://www.w3.org/2000/svg">
<path fill-rule="evenodd" clip-rule="evenodd" d="M57.8393 0.558624H50.1608V34.5564L37.425 3.0342L30.3057 5.91059L43.3714 38.2494L18.7085 13.5865L13.2791 19.016L36.9174 42.6543L6.28396 29.2702L3.20978 36.3064L35.6235 50.4683H0.251129V58.1468H35.6235L3.20979 72.3085L6.28396 79.3448L36.9173 65.9608L13.2791 89.599L18.7085 95.0282L43.3714 70.3655L30.3057 102.705L37.425 105.581L50.1608 74.0586V108.056H57.8393V74.0586L70.5751 105.581L77.6941 102.705L64.6288 70.3655L89.2915 95.0282L94.7207 89.599L71.0825 65.9608L101.716 79.3448L104.79 72.3085L72.3767 58.1468H107.749V50.4683H72.3762L104.79 36.3064L101.716 29.2702L71.0825 42.6543L94.7207 19.016L89.2915 13.5865L64.6288 38.2494L77.6941 5.91059L70.5751 3.0342L57.8393 34.5564V0.558624Z" fill="#525FE1"/>
</svg>
