<svg width="36" height="36" viewBox="0 0 36 36" fill="none" xmlns="http://www.w3.org/2000/svg">
<path d="M14.9596 27H21.0403C21.2384 25.1976 22.1581 23.7097 23.6514 22.0839C23.8195 21.9009 24.8982 20.7846 25.0261 20.6252C26.2977 19.0396 27 17.0775 27 15C27 10.0294 22.9706 6 18 6C13.0294 6 9 10.0294 9 15C9 17.0765 9.70161 19.0375 10.9719 20.6226C11.1001 20.7825 12.1812 21.9018 12.3473 22.0827C13.8415 23.7096 14.7615 25.1976 14.9596 27ZM21 30H15V31.5H21V30ZM8.63093 22.4988C6.98468 20.4445 6 17.8372 6 15C6 8.37258 11.3726 3 18 3C24.6275 3 30 8.37258 30 15C30 17.8387 29.0142 20.4473 27.3665 22.5021C26.436 23.6622 24 25.5 24 27.75V31.5C24 33.1569 22.6569 34.5 21 34.5H15C13.3431 34.5 12 33.1569 12 31.5V27.75C12 25.5 9.56187 23.6604 8.63093 22.4988ZM19.5 15.0072H23.25L16.5 24.0072V18.0072H12.75L19.5 9V15.0072Z" fill="white"/>
</svg>
