<svg width="32" height="33" viewBox="0 0 32 33" fill="none" xmlns="http://www.w3.org/2000/svg">
<path d="M16 29.8333C8.6362 29.8333 2.66666 23.8637 2.66666 16.5C2.66666 9.13619 8.6362 3.16666 16 3.16666C23.3637 3.16666 29.3333 9.13619 29.3333 16.5C29.3333 23.8637 23.3637 29.8333 16 29.8333ZM14.1625 11.7194C14.0749 11.661 13.972 11.6299 13.8667 11.6299C13.5721 11.6299 13.3333 11.8686 13.3333 12.1632V20.8368C13.3333 20.9421 13.3645 21.0451 13.4229 21.1327C13.5863 21.3777 13.9175 21.444 14.1625 21.2805L20.6677 16.9437C20.7263 16.9047 20.7765 16.8544 20.8156 16.7959C20.9791 16.5508 20.9128 16.2196 20.6677 16.0563L14.1625 11.7194Z" fill="#525FE1"/>
</svg>
