<svg width="36" height="36" viewBox="0 0 36 36" fill="none" xmlns="http://www.w3.org/2000/svg">
<path d="M4.7417 6.70386C8.37762 3.06793 14.1707 2.90398 18.0012 6.21199C21.8292 2.90398 27.6224 3.06793 31.2582 6.70386C34.8876 10.3333 35.0574 16.1121 31.7677 19.9428L20.1213 31.6293C19.0029 32.7477 17.2213 32.7986 16.0428 31.7819L15.8787 31.6293L4.23212 19.9428C0.942423 16.1121 1.11228 10.3333 4.7417 6.70386ZM6.86301 8.82517C4.30229 11.3859 4.22913 15.4922 6.64353 18.1413L6.86301 18.3711L18 29.508L25.9539 21.552L20.6516 16.2498L19.0606 17.8408C17.3033 19.5981 14.454 19.5981 12.6966 17.8408C10.9393 16.0835 10.9393 13.2342 12.6966 11.4768L15.8484 8.32308C13.2794 6.26643 9.55614 6.36063 7.0929 8.60568L6.86301 8.82517ZM19.5909 13.0678C20.1767 12.482 21.1264 12.482 21.7122 13.0678L28.0752 19.4307L29.1369 18.3711C31.7729 15.7352 31.7729 11.4612 29.1369 8.82517C26.5761 6.26445 22.4698 6.19128 19.8209 8.60568L19.5909 8.82517L14.818 13.5981C14.274 14.1421 14.2352 14.9999 14.7014 15.5886L14.818 15.7194C15.3619 16.2634 16.2196 16.3023 16.8084 15.8359L16.9394 15.7194L19.5909 13.0678Z" fill="white"/>
</svg>
