<svg width="116" height="116" viewBox="0 0 116 116" fill="none" xmlns="http://www.w3.org/2000/svg">
<path d="M58 106.333C31.3062 106.333 9.66666 84.6935 9.66666 58C9.66666 31.3062 31.3062 9.66663 58 9.66663C84.6935 9.66663 106.333 31.3062 106.333 58C106.333 84.6935 84.6935 106.333 58 106.333ZM51.3392 40.6705C51.0216 40.4587 50.6485 40.3458 50.2667 40.3458C49.199 40.3458 48.3333 41.2113 48.3333 42.2791V73.7209C48.3333 74.1027 48.4464 74.4758 48.6581 74.7934C49.2502 75.6817 50.4508 75.922 51.3392 75.3294L74.9205 59.6085C75.1327 59.4669 75.3149 59.2847 75.4565 59.0725C76.0491 58.1841 75.8089 56.9835 74.9205 56.3914L51.3392 40.6705Z" fill="white"/>
</svg>
